<?xml version="1.0" encoding="UTF-8"?>
<svg version="1.1" xmlns="http://www.w3.org/2000/svg" width="409" height="413">
<path d="M0 0 C0.68637039 -0.0065712 1.37274078 -0.0131424 2.07991028 -0.01991272 C4.35486964 -0.03964903 6.62976302 -0.05130825 8.90478516 -0.0612793 C10.06951292 -0.06739259 10.06951292 -0.06739259 11.25777054 -0.07362938 C15.36666855 -0.09449038 19.47553314 -0.1087926 23.58447266 -0.11816406 C27.83061615 -0.12923575 32.07623662 -0.16364372 36.32219505 -0.20333576 C39.58557111 -0.22946517 42.84882177 -0.23785253 46.11229324 -0.24144554 C47.67761395 -0.24632016 49.24292874 -0.25795908 50.80814743 -0.27648354 C52.99882378 -0.30080105 55.18813661 -0.29992459 57.37890625 -0.29296875 C59.24849503 -0.30176811 59.24849503 -0.30176811 61.15585327 -0.31074524 C64.90866074 0.26795364 66.0174418 1.22714824 68.31884766 4.17700195 C69.66821289 6.49755859 69.66821289 6.49755859 70.87744141 9.0871582 C71.33989258 10.06499268 71.80234375 11.04282715 72.27880859 12.05029297 C72.76639648 13.10273193 73.25398437 14.1551709 73.75634766 15.23950195 C74.81189195 17.47929519 75.86789897 19.71887041 76.92431641 21.95825195 C77.47394043 23.13000977 78.02356445 24.30176758 78.58984375 25.5090332 C81.24928843 31.16569617 83.97270086 36.79169199 86.69070435 42.42037964 C88.09485182 45.3291486 89.49571891 48.23949419 90.89697266 51.1496582 C91.7042419 52.82545026 92.51152426 54.50123599 93.31884766 56.17700195 C101.28078766 55.16236192 109.04380862 53.85627191 116.84570312 51.9753418 C122.91813739 50.57952709 129.0479918 49.49213844 135.17895508 48.38720703 C137.41076072 47.98419058 139.64117504 47.57400896 141.87158203 47.16333008 C143.30314546 46.90313939 144.7347834 46.6433582 146.16650391 46.3840332 C148.08474976 46.03562378 148.08474976 46.03562378 150.04174805 45.68017578 C153.31884766 45.17700195 153.31884766 45.17700195 157.31884766 45.17700195 C157.19384766 46.92700195 157.19384766 46.92700195 156.31884766 49.17700195 C151.20773655 53.17700195 151.20773655 53.17700195 147.31884766 53.17700195 C147.31884766 53.83700195 147.31884766 54.49700195 147.31884766 55.17700195 C145.796875 56.34692383 145.796875 56.34692383 143.65478516 57.64575195 C142.8685376 58.12987549 142.08229004 58.61399902 141.2722168 59.11279297 C140.42135498 59.62898193 139.57049316 60.1451709 138.69384766 60.67700195 C129.56880618 66.31630326 120.73263672 72.24699991 112.22509766 78.78637695 C110.14151812 80.3063653 107.99192818 81.57913523 105.75634766 82.86450195 C102.16877468 84.9931632 98.78613337 87.24463041 95.44384766 89.73950195 C89.52988269 94.12052699 83.37942676 98.1014499 77.19042969 102.08154297 C70.20970838 106.57398173 63.30355332 111.17275419 56.40228271 115.7857666 C52.77748884 118.20626028 49.14736091 120.61873312 45.51806641 123.0324707 C29.62304382 133.60979392 13.74622997 144.21164992 -2.05615234 154.92700195 C-13.08984286 162.40816144 -24.14792332 169.85062692 -35.24365234 177.23950195 C-35.91739899 177.68818634 -36.59114563 178.13687073 -37.28530884 178.59915161 C-42.08281388 181.79343686 -46.88188936 184.98535882 -51.68115234 188.17700195 C-56.8296658 191.60117842 -61.97745766 195.0264337 -67.12399292 198.45358276 C-69.15549221 199.8058195 -71.18793754 201.15662458 -73.22045898 202.50732422 C-85.91335608 210.95235527 -98.47989996 219.57457247 -110.91162109 228.3996582 C-113.45963283 230.03484204 -115.83463811 231.17265598 -118.68115234 232.17700195 C-117.47234236 223.71533208 -113.67260179 216.74069123 -109.76904297 209.26342773 C-108.08811535 206.03963792 -106.44053136 202.79960432 -104.80615234 199.55200195 C-104.48614258 198.91673584 -104.16613281 198.28146973 -103.83642578 197.62695312 C-99.53843095 189.00260425 -95.6349911 180.1905813 -91.69921875 171.39672852 C-90.7368334 169.29840534 -89.72630847 167.23513509 -88.68115234 165.17700195 C-79.26184662 146.56627693 -70.19703486 127.76881067 -61.37426758 108.86816406 C-58.92551586 103.64341416 -56.35043143 98.48786387 -53.75219727 93.33618164 C-48.41977246 82.7259702 -43.42810153 71.94820354 -38.43115234 61.17700195 C-9.97175686 0.07885921 -9.97175686 0.07885921 0 0 Z M23.31884766 63.17700195 C21.96453543 65.02226117 21.96453543 65.02226117 20.63916016 67.43481445 C19.84106934 68.81008301 19.84106934 68.81008301 19.02685547 70.21313477 C18.1813916 71.68024902 18.1813916 71.68024902 17.31884766 73.17700195 C16.17427968 75.09338085 15.02576325 77.00740642 13.87353516 78.91918945 C13.27766602 79.91233154 12.68179688 80.90547363 12.06787109 81.92871094 C10.78215884 84.07150885 9.49634632 86.21424661 8.21044922 88.35693359 C5.15842896 93.44276852 2.10724963 98.52909333 -0.93896484 103.6184082 C-1.93628738 105.28381668 -2.93368085 106.94918269 -3.93115234 108.61450195 C-4.40866943 109.41218994 -4.88618652 110.20987793 -5.37817383 111.03173828 C-7.84112035 115.13832891 -10.32325969 119.2319358 -12.83349609 123.30981445 C-13.34299805 124.13811768 -13.8525 124.9664209 -14.37744141 125.81982422 C-15.34658959 127.39238933 -16.31844703 128.96328912 -17.29345703 130.53222656 C-17.72432617 131.230979 -18.15519531 131.92973145 -18.59912109 132.6496582 C-19.16796021 133.56630249 -19.16796021 133.56630249 -19.74829102 134.50146484 C-20.83645732 136.33427054 -20.83645732 136.33427054 -21.68115234 139.17700195 C-16.03999177 137.74474467 -12.28832286 134.89474483 -7.80615234 131.36450195 C-3.06564441 127.66982862 1.6382868 124.24976867 6.85449219 121.24853516 C7.57934814 120.71812622 7.57934814 120.71812622 8.31884766 120.17700195 C8.31884766 119.51700195 8.31884766 118.85700195 8.31884766 118.17700195 C8.90061768 117.90009521 9.4823877 117.62318848 10.08178711 117.33789062 C12.23093785 116.22262142 14.13571353 114.99828501 16.11181641 113.6027832 C16.82088135 113.10294922 17.52994629 112.60311523 18.26049805 112.08813477 C19.00162842 111.56058594 19.74275879 111.03303711 20.50634766 110.48950195 C21.26359131 109.95292969 22.02083496 109.41635742 22.80102539 108.86352539 C28.08210272 105.10371108 33.27800013 101.25563642 38.31884766 97.17700195 C37.64532861 92.94395217 36.24832415 89.29269841 34.59619141 85.3449707 C34.33125381 84.70836014 34.06631622 84.07174957 33.79335022 83.41584778 C32.95197661 81.39690774 32.10427174 79.3806984 31.25634766 77.36450195 C30.68235877 75.99032884 30.10878659 74.6159816 29.53564453 73.24145508 C28.13486282 69.88460843 26.7283931 66.53017967 25.31884766 63.17700195 C24.65884766 63.17700195 23.99884766 63.17700195 23.31884766 63.17700195 Z " fill="#FCFCFC" transform="translate(172.68115234375,83.822998046875)"/>
<path d="M0 0 C3 1 3 1 4.74584961 4 C5.39191593 5.32824465 6.02664736 6.66203903 6.65234375 8 C6.99374893 8.70970947 7.33515411 9.41941895 7.68690491 10.15063477 C8.78003772 12.42930682 9.85873003 14.71449894 10.9375 17 C11.65990133 18.50954847 12.3831988 20.01866843 13.10742188 21.52734375 C16.21563993 28.02057842 19.26981165 34.52907916 22.15600586 41.12451172 C23.59701406 44.32665954 25.21042184 47.4387693 26.8125 50.5625 C29.55569971 55.97213078 32.11439023 61.42374859 34.5 67 C37.08986315 73.04374997 39.90131992 78.93075357 42.88110352 84.79125977 C45.50302974 89.96052239 47.98433615 95.18633727 50.4375 100.4375 C53.39845009 106.76091759 56.51186915 112.97211558 59.8125 119.125 C68.21557142 134.83876152 68.21557142 134.83876152 67.5859375 138.23046875 C67.39257812 138.81441406 67.19921875 139.39835938 67 140 C60.34297585 136.08973889 53.87205727 131.9846474 47.49609375 127.6328125 C45.69682855 126.4123594 43.89751018 125.19198468 42.09814453 123.97167969 C41.17277893 123.34273804 40.24741333 122.71379639 39.29400635 122.0657959 C25.19127447 112.48397781 11.05886814 102.98294416 -3.35058594 93.86767578 C-9.40738239 90.03454326 -15.35598027 86.10036923 -21.19921875 81.94921875 C-23.21069737 80.5493194 -25.26030886 79.20362664 -27.33203125 77.89453125 C-28.41871094 77.20746094 -29.50539062 76.52039063 -30.625 75.8125 C-31.58664063 75.22082031 -32.54828125 74.62914062 -33.5390625 74.01953125 C-37.26298419 70.96355107 -38.65319665 67.74565447 -39.58203125 63.0703125 C-40.06034937 56.95756908 -40.24693169 51.75350689 -38 46 C-37.70351562 45.23300781 -37.40703125 44.46601563 -37.1015625 43.67578125 C-34.30206732 37.35209888 -30.34833189 32.7662134 -25.60546875 27.78515625 C-23.1085515 25.11603781 -20.83140145 22.36362247 -18.5625 19.5 C-13.7747727 13.56014581 -8.4687522 8.30737919 -3 3 C-1.99785178 2.00215285 -0.99669424 1.00329487 0 0 Z " fill="#FDFCFC" transform="translate(281,176)"/>
<path d="M0 0 C0.66 0.33 1.32 0.66 2 1 C2.68172798 3.33395082 3.26658079 5.63444468 3.8125 8 C6.66861856 19.35079387 11.53289149 28.44763868 21.83203125 34.7265625 C27.43758996 37.6480732 33.00304033 39.83329233 39.13671875 41.359375 C41 42 41 42 42 44 C41.071875 44.2475 40.14375 44.495 39.1875 44.75 C25.25041407 48.81263234 14.14352547 54.51829576 6.75 67.625 C4.45507398 72.51888071 3.66393751 77.83474666 2.7109375 83.12109375 C2.47632813 84.07113281 2.24171875 85.02117187 2 86 C1.01 86.495 1.01 86.495 0 87 C-0.29132813 85.88882813 -0.58265625 84.77765625 -0.8828125 83.6328125 C-4.63793214 69.7939823 -9.26324574 58.50170119 -22.109375 50.72265625 C-24.04568172 49.72823516 -25.9964297 48.84924996 -28 48 C-29.155 47.443125 -30.31 46.88625 -31.5 46.3125 C-35.45729644 44.82851383 -38.80481987 44.36799826 -43 44 C-42.67 43.34 -42.34 42.68 -42 42 C-39.68744907 41.34353393 -37.40429982 40.77812774 -35.0625 40.25 C-28.96321264 38.7751753 -24.09976068 36.72077607 -18.85546875 33.171875 C-17 32 -17 32 -15 32 C-14.72800781 31.4121875 -14.45601562 30.824375 -14.17578125 30.21875 C-13.02494379 28.04707001 -11.7540818 26.38485831 -10.1875 24.5 C-5.61515435 18.53801989 -2.63802886 11.32295254 -1 4 C-0.66666667 2.66666667 -0.33333333 1.33333333 0 0 Z " fill="#F7F6F5" transform="translate(197,253)"/>
<path d="M0 0 C3 1 3 1 4.74584961 4 C5.39191593 5.32824465 6.02664736 6.66203903 6.65234375 8 C6.99374893 8.70970947 7.33515411 9.41941895 7.68690491 10.15063477 C8.78003772 12.42930682 9.85873003 14.71449894 10.9375 17 C11.65990133 18.50954847 12.3831988 20.01866843 13.10742188 21.52734375 C23.01236158 42.21508286 23.01236158 42.21508286 25 50 C21.69718161 48.3485908 20.84373416 44.74036593 19.375 41.5 C18.65761148 39.94788921 17.9401618 38.39580669 17.22265625 36.84375 C16.85543457 36.04324219 16.48821289 35.24273437 16.10986328 34.41796875 C14.35955762 30.60472033 12.5903871 26.80045708 10.8125 23 C10.4810498 22.28884033 10.14959961 21.57768066 9.80810547 20.8449707 C7.69225622 16.34601261 5.42460601 11.99779856 2.8125 7.76171875 C2 6 2 6 2 2 C-3.83022506 6.71562321 -8.88215609 11.98366554 -13.87402344 17.55541992 C-16.1451956 20.07418709 -18.16201009 22.10800672 -21 24 C-19.31680558 19.76619809 -16.27757414 16.86827008 -13.1875 13.625 C-12.13787096 12.51439127 -11.08968164 11.40242003 -10.04296875 10.2890625 C-9.5329834 9.74668945 -9.02299805 9.20431641 -8.49755859 8.64550781 C-7.01941764 7.02133598 -5.62387793 5.35183159 -4.23828125 3.6484375 C-2 1 -2 1 0 0 Z " fill="#E4DDDD" transform="translate(281,176)"/>
<path d="M0 0 C1 2 1 2 0.35424805 3.94506836 C-0.00628662 4.73534424 -0.36682129 5.52562012 -0.73828125 6.33984375 C-1.14167725 7.22921631 -1.54507324 8.11858887 -1.96069336 9.03491211 C-2.40678955 9.99276611 -2.85288574 10.95062012 -3.3125 11.9375 C-3.76310791 12.9179126 -4.21371582 13.8983252 -4.67797852 14.90844727 C-8.11883648 22.31103522 -11.79914946 29.56658002 -15.68676758 36.74389648 C-18.03613947 41.08764344 -20.1270609 45.42906502 -22 50 C-22.66 50 -23.32 50 -24 50 C-22.33862844 44.43166674 -19.89328571 39.34232774 -17.375 34.125 C-16.9320459 33.20187012 -16.4890918 32.27874023 -16.03271484 31.32763672 C-13.26482628 25.57634764 -10.46787523 19.83960516 -7.625 14.125 C-7.3161084 13.50254395 -7.0072168 12.88008789 -6.68896484 12.23876953 C-4.59764958 8.07089055 -2.34024069 4.03098727 0 0 Z " fill="#D4CFD1" transform="translate(163,87)"/>
<path d="M0 0 C3.52838759 1.7641938 4.55909088 5.85390681 6.1875 9.3125 C6.56841797 10.08529297 6.94933594 10.85808594 7.34179688 11.65429688 C7.69693359 12.40388672 8.05207031 13.15347656 8.41796875 13.92578125 C8.74563232 14.61067627 9.0732959 15.29557129 9.41088867 16.0012207 C10 18 10 18 9 22 C6.36 20.35 3.72 18.7 1 17 C1.99 16.01 2.98 15.02 4 14 C3.79503906 13.40832031 3.59007812 12.81664062 3.37890625 12.20703125 C2.0002429 8.16339184 0.68249153 4.23144751 0 0 Z " fill="#E1DEDC" transform="translate(339,294)"/>
<path d="M0 0 C0.99 0.33 1.98 0.66 3 1 C4.1875 4.0625 4.1875 4.0625 5 7 C4.01 6.67 3.02 6.34 2 6 C2 4.68 2 3.36 2 2 C-3.83022506 6.71562321 -8.88215609 11.98366554 -13.87402344 17.55541992 C-16.1451956 20.07418709 -18.16201009 22.10800672 -21 24 C-19.31680558 19.76619809 -16.27757414 16.86827008 -13.1875 13.625 C-12.13787096 12.51439127 -11.08968164 11.40242003 -10.04296875 10.2890625 C-9.5329834 9.74668945 -9.02299805 9.20431641 -8.49755859 8.64550781 C-7.01941764 7.02133598 -5.62387793 5.35183159 -4.23828125 3.6484375 C-2 1 -2 1 0 0 Z " fill="#D6D1D1" transform="translate(281,176)"/>
<path d="M0 0 C-0.33 1.32 -0.66 2.64 -1 4 C-1.66 4 -2.32 4 -3 4 C-3 3.34 -3 2.68 -3 2 C-4.22074219 2.27714844 -5.44148438 2.55429688 -6.69921875 2.83984375 C-16.16064376 4.9387454 -25.28916534 6.65131653 -35 7 C-31.68950405 5.11557924 -28.57880853 4.39614209 -24.84375 3.7109375 C-23.65652344 3.49179688 -22.46929687 3.27265625 -21.24609375 3.046875 C-20.00988281 2.82515625 -18.77367187 2.6034375 -17.5 2.375 C-15.64568359 2.03082031 -15.64568359 2.03082031 -13.75390625 1.6796875 C-4.54561942 0 -4.54561942 0 0 0 Z " fill="#D6D1D3" transform="translate(330,129)"/>
<path d="M0 0 C2.06060289 6.18180868 -4.20848718 14.47096274 -7.0625 20.1875 C-8.06185711 22.17603843 -9.06372979 24.1632824 -10.06689453 26.14990234 C-11.38488676 28.76312712 -12.69273454 31.38139661 -14 34 C-14.66 34 -15.32 34 -16 34 C-14.49529325 28.87434119 -12.23740194 24.46891096 -9.6875 19.8125 C-6.18470252 13.31877112 -2.91538113 6.78302243 0 0 Z " fill="#D6CFD0" transform="translate(73,273)"/>
<path d="M0 0 C2.67558591 2.35950332 3.94622577 4.67838708 5.375 7.9296875 C5.80296875 8.89003906 6.2309375 9.85039062 6.671875 10.83984375 C7.11015625 11.84144531 7.5484375 12.84304687 8 13.875 C8.87218445 15.85280651 9.74709957 17.82941153 10.625 19.8046875 C11.00914062 20.68108887 11.39328125 21.55749023 11.7890625 22.46044922 C12.97029096 25.07954073 12.97029096 25.07954073 14.7109375 27.63720703 C15.13632812 28.41692871 15.56171875 29.19665039 16 30 C15.67 30.99 15.34 31.98 15 33 C11.26281596 26.78025799 8.25856231 20.28501655 5.25 13.6875 C4.74339844 12.59115234 4.23679687 11.49480469 3.71484375 10.36523438 C3.23660156 9.32044922 2.75835937 8.27566406 2.265625 7.19921875 C1.83024414 6.24877686 1.39486328 5.29833496 0.94628906 4.3190918 C0 2 0 2 0 0 Z " fill="#DAD6D5" transform="translate(306,226)"/>
<path d="M0 0 C0.33 0.66 0.66 1.32 1 2 C-0.17658395 4.78993012 -1.41166408 7.4764531 -2.75 10.1875 C-3.47510256 11.68043438 -4.19907423 13.1739186 -4.921875 14.66796875 C-5.27531982 15.39540283 -5.62876465 16.12283691 -5.99291992 16.87231445 C-6.93066577 18.85351568 -7.8084166 20.84778732 -8.66015625 22.8671875 C-9.89919783 25.76430513 -11.31083786 28.34560236 -13 31 C-14.35781276 26.92656172 -13.15613073 25.64590805 -11.2890625 21.8359375 C-11.00147064 21.2432608 -10.71387878 20.65058411 -10.41757202 20.03994751 C-9.49589759 18.14698322 -8.56041876 16.26120374 -7.625 14.375 C-7.00174327 13.09677358 -6.37933688 11.81813216 -5.7578125 10.5390625 C-1.1913133 1.1913133 -1.1913133 1.1913133 0 0 Z " fill="#D5D0D1" transform="translate(115,186)"/>
<path d="M0 0 C4.1747899 -0.34789916 5.79678245 0.39225238 9 3 C7.54550599 4.0055761 6.08627557 5.00430435 4.625 6 C3.40683594 6.8353125 3.40683594 6.8353125 2.1640625 7.6875 C0 9 0 9 -2 9 C-1.34 6.03 -0.68 3.06 0 0 Z " fill="#EDEAE7" transform="translate(56,307)"/>
<path d="M0 0 C0 3 0 3 -1.8125 6.3125 C-4.46491277 11.31740607 -5.29156389 16.58791029 -6.2890625 22.12109375 C-6.52367187 23.07113281 -6.75828125 24.02117187 -7 25 C-7.66 25.33 -8.32 25.66 -9 26 C-9.66 23.36 -10.32 20.72 -11 18 C-10.34 18 -9.68 18 -9 18 C-8.52820313 16.80503906 -8.52820313 16.80503906 -8.046875 15.5859375 C-5.78739465 9.99168193 -3.62750816 4.83667754 0 0 Z " fill="#C8C0C0" transform="translate(206,314)"/>
<path d="M0 0 C0.66 0 1.32 0 2 0 C3.70030784 3.45218057 5.38303052 6.91263989 7.0625 10.375 C7.54783203 11.35984375 8.03316406 12.3446875 8.53320312 13.359375 C8.98759766 14.30039063 9.44199219 15.24140625 9.91015625 16.2109375 C10.33433838 17.08024902 10.75852051 17.94956055 11.19555664 18.84521484 C11.5937561 19.9118335 11.5937561 19.9118335 12 21 C11.67 21.66 11.34 22.32 11 23 C8.46759252 18.86187043 6.11707228 14.64241775 3.8125 10.375 C3.44447266 9.70726562 3.07644531 9.03953125 2.69726562 8.3515625 C0 3.34735911 0 3.34735911 0 0 Z " fill="#DCD8D8" transform="translate(285,183)"/>
<path d="M0 0 C3.0507305 3.6975626 5.10445631 7.80589458 7.25 12.0625 C7.62640625 12.78244141 8.0028125 13.50238281 8.390625 14.24414062 C9.34038605 16.12445799 10.17845147 18.06023263 11 20 C10.67 20.99 10.34 21.98 10 23 C7.44326342 18.92495524 5.34704046 14.72441425 3.3125 10.375 C2.99216797 9.70726563 2.67183594 9.03953125 2.34179688 8.3515625 C0.95433645 5.39322471 0 3.3076373 0 0 Z " fill="#E0DADB" transform="translate(246,101)"/>
<path d="M0 0 C1 2 1 2 1 4 C2.32 3.67 3.64 3.34 5 3 C-0.64524422 8.80205656 -0.64524422 8.80205656 -4 11 C-4.66 11 -5.32 11 -6 11 C-5.33333333 9.33333333 -4.66666667 7.66666667 -4 6 C-3.505 4.63875 -3.505 4.63875 -3 3.25 C-2 1 -2 1 0 0 Z " fill="#D5CBCD" transform="translate(152,218)"/>
<path d="M0 0 C0.66 0 1.32 0 2 0 C2.67057887 1.7902061 3.3363469 3.58221489 4 5.375 C4.556875 6.87160156 4.556875 6.87160156 5.125 8.3984375 C6 11 6 11 6 13 C5.34 13 4.68 13 4 13 C3.01 10.03 2.02 7.06 1 4 C0.34 4 -0.32 4 -1 4 C-1.66 5.32 -2.32 6.64 -3 8 C-3 4.40142046 -2.04169485 2.90548882 0 0 Z " fill="#D3CECF" transform="translate(197,143)"/>
<path d="M0 0 C0.99 0.33 1.98 0.66 3 1 C4.1875 4.0625 4.1875 4.0625 5 7 C4.01 6.67 3.02 6.34 2 6 C2 4.68 2 3.36 2 2 C-1.465 4.97 -1.465 4.97 -5 8 C-5.66 7.67 -6.32 7.34 -7 7 C-2.25 1.125 -2.25 1.125 0 0 Z " fill="#CAC4C3" transform="translate(281,176)"/>
<path d="M0 0 C0.66 0.33 1.32 0.66 2 1 C1.40477663 2.44122613 0.79842381 3.87785868 0.1875 5.3125 C-0.31716797 6.51326172 -0.31716797 6.51326172 -0.83203125 7.73828125 C-1.98200704 9.96515745 -3.13626961 11.34987767 -5 13 C-4.39254603 8.14036821 -2.27241033 4.2594482 0 0 Z " fill="#D8D5D5" transform="translate(138,138)"/>
<path d="M0 0 C-0.33 1.32 -0.66 2.64 -1 4 C-1.66 4 -2.32 4 -3 4 C-3 3.34 -3 2.68 -3 2 C-3.99 2.33 -4.98 2.66 -6 3 C-8.33299825 3.03954234 -10.66708189 3.04401732 -13 3 C-8.72816203 0.15210802 -5.07638947 0 0 0 Z " fill="#C8BFBC" transform="translate(330,129)"/>
<path d="M0 0 C3.34708051 1.54841575 6.24667512 3.49105864 9.25 5.625 C10.14203125 6.25664062 11.0340625 6.88828125 11.953125 7.5390625 C12.96632813 8.26222656 12.96632813 8.26222656 14 9 C13.01 9.495 13.01 9.495 12 10 C9.99426318 8.71656721 7.99563881 7.4239631 6 6.125 C5.42765625 5.76019531 4.8553125 5.39539063 4.265625 5.01953125 C2.80818084 4.06525233 1.39962775 3.03722413 0 2 C0 1.34 0 0.68 0 0 Z " fill="#DFDDDE" transform="translate(245,246)"/>
<path d="M0 0 C1.32 0.66 2.64 1.32 4 2 C-0.455 4.97 -0.455 4.97 -5 8 C-5 7.01 -5 6.02 -5 5 C-4.01 4.67 -3.02 4.34 -2 4 C-0.79117904 1.99983534 -0.79117904 1.99983534 0 0 Z " fill="#E7E3E2" transform="translate(230,194)"/>
<path d="M0 0 C2.8125 -0.3125 2.8125 -0.3125 6 0 C7.875 2.5 7.875 2.5 9 5 C4.98525763 5 3.18024863 3.33218233 0 1 C0 0.67 0 0.34 0 0 Z " fill="#EAE8E7" transform="translate(301,284)"/>
<path d="M0 0 C0.350625 0.66 0.70125 1.32 1.0625 2 C2.96557142 4.41103961 2.96557142 4.41103961 6.6875 4.25 C7.780625 4.1675 8.87375 4.085 10 4 C9.01 4.99 8.02 5.98 7 7 C5.02 6.34 3.04 5.68 1 5 C0.67 3.35 0.34 1.7 0 0 Z " fill="#DDD7D8" transform="translate(263,136)"/>
<path d="M0 0 C1.21386936 3.64160808 0.6674695 4.33165469 -0.9375 7.6875 C-1.31777344 8.49574219 -1.69804688 9.30398438 -2.08984375 10.13671875 C-2.39019531 10.75160156 -2.69054687 11.36648438 -3 12 C-3.88336837 9.5332355 -4.1312406 8.36140628 -3.22265625 5.859375 C-2.83980469 5.16328125 -2.45695312 4.4671875 -2.0625 3.75 C-1.68222656 3.04359375 -1.30195312 2.3371875 -0.91015625 1.609375 C-0.60980469 1.07828125 -0.30945313 0.5471875 0 0 Z " fill="#E6E3E2" transform="translate(73,273)"/>
<path d="M0 0 C0.66 0 1.32 0 2 0 C2.69965443 1.26418246 3.38434763 2.53665402 4.0625 3.8125 C4.63677734 4.87404297 4.63677734 4.87404297 5.22265625 5.95703125 C6 8 6 8 5 11 C0.57142857 3.57142857 0.57142857 3.57142857 0 0 Z " fill="#E0DCDB" transform="translate(316,248)"/>
<path d="M0 0 C0 0.66 0 1.32 0 2 C-1.98 2.99 -3.96 3.98 -6 5 C-6.66 4.34 -7.32 3.68 -8 3 C-3.375 0 -3.375 0 0 0 Z " fill="#FCF5F4" transform="translate(327,131)"/>
<path d="" fill="#000000" transform="translate(0,0)"/>
<path d="" fill="#000000" transform="translate(0,0)"/>
<path d="" fill="#000000" transform="translate(0,0)"/>
<path d="" fill="#000000" transform="translate(0,0)"/>
<path d="" fill="#000000" transform="translate(0,0)"/>
<path d="" fill="#000000" transform="translate(0,0)"/>
<path d="" fill="#000000" transform="translate(0,0)"/>
<path d="" fill="#000000" transform="translate(0,0)"/>
<path d="" fill="#000000" transform="translate(0,0)"/>
<path d="" fill="#000000" transform="translate(0,0)"/>
<path d="" fill="#000000" transform="translate(0,0)"/>
<path d="" fill="#000000" transform="translate(0,0)"/>
<path d="" fill="#000000" transform="translate(0,0)"/>
<path d="" fill="#000000" transform="translate(0,0)"/>
<path d="" fill="#000000" transform="translate(0,0)"/>
<path d="" fill="#000000" transform="translate(0,0)"/>
<path d="" fill="#000000" transform="translate(0,0)"/>
<path d="" fill="#000000" transform="translate(0,0)"/>
<path d="" fill="#000000" transform="translate(0,0)"/>
<path d="" fill="#000000" transform="translate(0,0)"/>
<path d="" fill="#000000" transform="translate(0,0)"/>
<path d="" fill="#000000" transform="translate(0,0)"/>
<path d="" fill="#000000" transform="translate(0,0)"/>
<path d="" fill="#000000" transform="translate(0,0)"/>
<path d="" fill="#000000" transform="translate(0,0)"/>
<path d="" fill="#000000" transform="translate(0,0)"/>
<path d="" fill="#000000" transform="translate(0,0)"/>
<path d="" fill="#0000FF" transform="translate(0,0)"/>
<path d="" fill="#000000" transform="translate(0,0)"/>
<path d="" fill="#000000" transform="translate(0,0)"/>
<path d="" fill="#000000" transform="translate(0,0)"/>
<path d="" fill="#000000" transform="translate(0,0)"/>
<path d="" fill="#000000" transform="translate(0,0)"/>
<path d="" fill="#000000" transform="translate(0,0)"/>
<path d="" fill="#000000" transform="translate(0,0)"/>
<path d="" fill="#000000" transform="translate(0,0)"/>
<path d="" fill="#000000" transform="translate(0,0)"/>
<path d="" fill="#000000" transform="translate(0,0)"/>
<path d="" fill="#000000" transform="translate(0,0)"/>
<path d="" fill="#000000" transform="translate(0,0)"/>
<path d="" fill="#000000" transform="translate(0,0)"/>
<path d="" fill="#000000" transform="translate(0,0)"/>
<path d="" fill="#000000" transform="translate(0,0)"/>
<path d="" fill="#000000" transform="translate(0,0)"/>
<path d="" fill="#000000" transform="translate(0,0)"/>
<path d="" fill="#000000" transform="translate(0,0)"/>
<path d="" fill="#000000" transform="translate(0,0)"/>
<path d="" fill="#000000" transform="translate(0,0)"/>
<path d="" fill="#000000" transform="translate(0,0)"/>
<path d="" fill="#000000" transform="translate(0,0)"/>
<path d="" fill="#000000" transform="translate(0,0)"/>
<path d="" fill="#000000" transform="translate(0,0)"/>
<path d="" fill="#000000" transform="translate(0,0)"/>
<path d="" fill="#000000" transform="translate(0,0)"/>
<path d="" fill="#000000" transform="translate(0,0)"/>
<path d="" fill="#000000" transform="translate(0,0)"/>
<path d="" fill="#000000" transform="translate(0,0)"/>
<path d="" fill="#000000" transform="translate(0,0)"/>
<path d="" fill="#000000" transform="translate(0,0)"/>
<path d="" fill="#000000" transform="translate(0,0)"/>
<path d="" fill="#000000" transform="translate(0,0)"/>
<path d="" fill="#000000" transform="translate(0,0)"/>
<path d="" fill="#000000" transform="translate(0,0)"/>
<path d="" fill="#000000" transform="translate(0,0)"/>
<path d="" fill="#000000" transform="translate(0,0)"/>
<path d="" fill="#000000" transform="translate(0,0)"/>
<path d="" fill="#000000" transform="translate(0,0)"/>
<path d="" fill="#000000" transform="translate(0,0)"/>
<path d="" fill="#000000" transform="translate(0,0)"/>
<path d="" fill="#000000" transform="translate(0,0)"/>
<path d="" fill="#000000" transform="translate(0,0)"/>
<path d="" fill="#000000" transform="translate(0,0)"/>
<path d="" fill="#000000" transform="translate(0,0)"/>
<path d="" fill="#000000" transform="translate(0,0)"/>
<path d="" fill="#000000" transform="translate(0,0)"/>
</svg>
